<?xml version="1.0" encoding="UTF-8" standalone="no"?>
<!-- Created with Inkscape (http://www.inkscape.org/) -->

<svg
   width="83.97525mm"
   height="46.865559mm"
   viewBox="0 0 83.97525 46.865559"
   version="1.1"
   id="svg1"
   xml:space="preserve"
   inkscape:version="1.3.2 (091e20e, 2023-11-25, custom)"
   sodipodi:docname="logo BOMA.svg"
   xmlns:inkscape="http://www.inkscape.org/namespaces/inkscape"
   xmlns:sodipodi="http://sodipodi.sourceforge.net/DTD/sodipodi-0.dtd"
   xmlns="http://www.w3.org/2000/svg"
   xmlns:svg="http://www.w3.org/2000/svg"><sodipodi:namedview
     id="namedview1"
     pagecolor="#ffffff"
     bordercolor="#000000"
     borderopacity="0.25"
     inkscape:showpageshadow="2"
     inkscape:pageopacity="0.0"
     inkscape:pagecheckerboard="0"
     inkscape:deskcolor="#d1d1d1"
     inkscape:document-units="mm"
     showguides="false"
     inkscape:zoom="1.6630104"
     inkscape:cx="288.03187"
     inkscape:cy="273.60021"
     inkscape:window-width="1920"
     inkscape:window-height="991"
     inkscape:window-x="-9"
     inkscape:window-y="-9"
     inkscape:window-maximized="1"
     inkscape:current-layer="layer1" /><defs
     id="defs1" /><g
     inkscape:label="Calque 1"
     inkscape:groupmode="layer"
     id="layer1"
     transform="translate(-69.236665,-46.001845)"><path
       id="path4"
       style="fill:#000000"
       d="m 89.599182,46.001843 -1.771985,0.742591 c 0.195596,0.03161 0.39253,0.06352 0.469222,0.09663 0.517661,0.223281 0.724614,0.504921 0.721403,0.982885 -0.01948,2.86009 -1.111632,18.266549 -1.646928,23.235791 -0.241753,2.244308 -0.537309,6.200965 -0.657324,8.792745 l -0.218074,4.712891 -1.686202,0.662492 c -2.497042,0.98194 -5.584655,1.68157 -8.76639,1.985925 -5.362921,0.512996 -5.588012,0.50928 -5.881812,-0.104386 -0.288998,-0.603719 0.720325,-27.767003 1.157552,-31.151071 0.216581,-1.676296 0.2785,-1.797341 1.160136,-2.263944 0.512265,-0.271128 1.128256,-0.48398 1.368909,-0.472839 0.240651,0.01118 1.475812,-0.422034 2.744535,-0.962732 1.268723,-0.540719 3.035434,-1.281635 3.926375,-1.646411 3.763113,-1.540704 6.383816,-2.717398 6.531385,-2.933155 0.263206,-0.384882 -0.09341,-0.540135 -0.661459,-0.332796 l -6.289021,2.634981 -0.629419,0.238745 c -0.197104,0.07699 -0.377107,0.145939 -0.497128,0.188619 l -1.247469,0.473357 -0.001,0.0124 -2.092379,0.860412 c -1.150912,0.473366 -2.549446,0.982864 -3.107821,1.132748 -1.86635,0.50098 -1.763517,-0.129449 -2.512508,15.401127 -0.921318,19.103364 -0.917645,18.961445 -0.524516,19.554879 0.274658,0.414555 0.648555,0.513924 2.027784,0.537951 l 1.691369,0.02946 -0.169498,0.124023 1.97714,-0.525032 1.932698,-0.467672 7.474996,-1.485697 2.109949,-0.857829 5.4684,0.572058 0.699182,0.329696 c 0.236198,0.06948 0.434033,0.150087 0.607715,0.247013 0.473763,0.264381 1.431395,0.562269 2.128552,0.661975 0.318366,0.0456 0.593675,0.09994 0.815971,0.152446 l 1.097091,0.05116 1.013892,-0.01033 c 0.163991,-0.1332 0.311311,-0.249733 0.33848,-0.24908 0.145503,0.0042 0.620403,-0.158961 1.055233,-0.360702 0.542052,-0.2515 0.872192,-0.277342 1.050062,-0.08217 0.33241,0.364956 1.20715,0.410142 1.22318,0.06408 0.007,-0.145358 -0.31246,-0.279297 -0.709,-0.297656 l -0.72037,-0.03307 1.02991,-0.772046 c 0.5665,-0.424521 1.22443,-1.182762 1.46245,-1.685685 0.82481,-1.742742 0.6016,-6.56759 -0.3204,-6.923092 -0.39271,-0.151432 -0.381,0.296636 0.0377,1.44539 0.61878,1.697772 0.12525,5.659591 -0.70022,5.621363 -0.12203,-0.0052 -0.24081,0.197281 -0.26407,0.451135 -0.0266,0.290137 -0.0874,0.333503 -0.16329,0.116272 -0.0663,-0.190065 0.0244,-0.504545 0.20205,-0.699182 0.56648,-0.621713 0.62625,-5.138025 0.076,-5.741769 -0.17329,-0.190125 -0.30847,-0.482318 -0.30075,-0.649056 0.0205,-0.441677 -0.75571,-1.341308 -1.56063,-1.808675 -0.466453,-0.27085 -0.623978,-0.515916 -0.472837,-0.736906 0.16846,-0.246313 0.480297,-0.08029 1.217497,0.648023 1.12945,1.115931 1.85196,1.371733 1.34979,0.478007 -0.1681,-0.299137 -0.39604,-0.547832 -0.50643,-0.552938 -0.11042,-0.0052 -0.19277,-0.174372 -0.18345,-0.375688 0.0134,-0.288909 0.39156,-0.32011 1.79472,-0.149345 0.97781,0.118951 1.86012,0.297929 1.96112,0.397909 0.10101,0.09996 0.10408,2.612109 0.006,5.582605 -0.17341,5.284006 -0.18937,5.40428 -0.73587,5.522143 -0.15572,0.03365 -0.51962,0.316122 -0.97565,0.73949 l 1.35288,-0.01292 c 0.63913,-0.127347 1.90465,-0.07739 5.2493,0.07751 3.38166,0.156592 5.57988,0.150992 5.9278,-0.01499 0.3999,-0.190775 0.62919,-0.180252 0.82837,0.03824 0.34504,0.378547 3.0726,0.526355 3.08922,0.167432 0.006,-0.14536 -0.46343,-0.286238 -1.0449,-0.31316 -1.1275,-0.05219 -1.35826,-0.403785 -0.52555,-0.800984 0.2794,-0.133287 0.90626,-0.804685 1.3932,-1.491382 0.80525,-1.135594 0.89425,-1.442157 0.98444,-3.389974 0.0546,-1.177964 -0.0165,-2.221154 -0.15762,-2.317688 -0.14121,-0.09652 -0.24572,-0.408382 -0.23254,-0.692981 0.0131,-0.284589 -0.49945,-1.067224 -1.13895,-1.739429 -0.63952,-0.672184 -1.09225,-1.325091 -1.00614,-1.451074 0.0861,-0.125974 0.84639,-0.188762 1.6893,-0.139526 1.2686,0.07401 1.52312,0.165532 1.47795,0.5333 -0.0301,0.244372 -0.0134,1.854391 0.0362,3.57756 0.0497,1.723129 0.0678,4.234758 0.0403,5.581055 -0.0444,2.179009 -0.10086,2.445351 -0.51263,2.426208 -0.43336,-0.02019 -0.53112,0.106491 -0.31058,0.58291 l 1.05265,0.04599 c 0.1687,-0.03003 0.43696,-0.04406 0.75345,-0.02945 1.07669,0.04991 1.27574,-0.395583 0.25321,-0.566374 -0.67196,-0.112196 -0.6939,-0.180066 -0.69246,-2.102714 10e-4,-2.099079 -0.0438,-6.393068 -0.077,-7.287411 -0.0108,-0.291857 0.0251,-1.034975 0.0796,-1.651578 0.0937,-1.059372 0.14267,-1.11887 0.89194,-1.084172 0.4361,0.02019 0.79439,0.125785 0.79633,0.235128 0.002,0.109353 0.0253,0.736394 0.0522,1.393197 0.10661,2.59534 0.1289,6.325947 0.0486,8.146789 -0.0691,1.555902 -0.007,1.919825 0.32608,1.935282 0.32676,0.01512 0.385,-0.172084 0.28112,-0.913639 -0.15455,-1.103685 0.0351,-1.166752 0.70228,-0.232544 0.8706,1.218841 1.32784,0.84279 0.50333,-0.413928 -0.7265,-1.107253 -0.94525,-2.122962 -0.45217,-2.10013 0.13558,0.0062 0.30345,0.222958 0.37259,0.481107 0.20717,0.77392 1.69997,2.434767 2.64014,2.937289 1.14978,0.614563 1.23934,0.600043 0.66715,-0.108004 -0.34907,-0.431954 -0.38549,-0.618019 -0.13591,-0.692464 0.22394,-0.06685 0.11593,-0.296394 -0.31419,-0.668176 -0.86472,-0.747472 -0.65527,-0.88115 0.44286,-0.283187 1.15973,0.631488 1.18691,0.666389 0.72812,0.921391 -0.32841,0.182569 -0.31662,0.250876 0.0724,0.421162 0.51115,0.223791 1.57596,-0.167081 2.53421,-0.930692 0.61807,-0.49254 0.61881,-0.49241 0.59222,0.08165 -0.0155,0.334615 -0.1924,0.566724 -0.42323,0.556038 -0.218,-0.01035 -0.40204,0.100611 -0.40877,0.24598 -0.023,0.496574 0.64892,0.266725 1.24902,-0.427364 0.3296,-0.381227 0.73916,-1.121672 0.91003,-1.644861 0.67784,-2.075465 -0.0315,-5.377123 -1.31672,-6.129342 -0.55212,-0.323125 -0.56035,-0.314504 -0.17208,0.181901 1.03999,1.32962 1.54068,3.492349 1.17099,5.059123 -0.30726,1.302174 -0.65703,1.122022 -0.44132,-0.227376 0.13292,-0.831719 0.0464,-1.391507 -0.33073,-2.142505 -0.28083,-0.559086 -0.50242,-1.183261 -0.49299,-1.386996 0.0214,-0.462185 -1.08555,-1.334708 -2.34921,-1.852083 -1.84366,-0.754823 -3.98599,0.390826 -4.36511,2.334225 -0.14523,0.74416 -0.15132,0.737348 -0.14728,-0.147795 0.012,-2.548042 2.75861,-4.000688 5.29477,-2.800346 1.14309,0.540953 1.14446,0.5407 0.98082,0.04703 -0.0731,-0.220756 -0.71544,-0.60404 -1.42679,-0.851628 -1.16687,-0.406171 -1.40382,-0.412138 -2.42001,-0.06046 -2.21208,0.765513 -2.91456,1.859537 -3.05356,4.753198 -0.073,1.511284 -0.17893,2.063116 -0.34313,1.781286 -0.44487,-0.763726 0.1442,-5.147618 0.74104,-5.514392 0.12164,-0.07481 0.29617,-0.315002 0.38809,-0.533817 0.0919,-0.218814 0.8534,-0.695589 1.69137,-1.05885 1.61935,-0.702053 3.01799,-0.644588 3.61632,0.148311 0.15895,0.210643 0.4279,0.39004 0.59789,0.397909 0.83539,0.03872 3.17088,3.516167 3.11868,4.643644 -0.0113,0.244173 0.0645,0.537255 0.16846,0.65164 0.10397,0.114385 0.16743,0.673443 0.14108,1.242301 -0.0263,0.568849 -0.13695,1.030144 -0.24598,1.025261 -0.10903,-0.0052 -0.21254,0.299395 -0.22996,0.675927 -0.0605,1.306275 -2.28989,3.445871 -3.53054,3.388424 -0.35726,-0.01657 -0.34422,-0.09137 0.0889,-0.527616 0.53875,-0.542707 0.38596,-1.085522 -0.16433,-0.583944 -0.17998,0.164045 -0.52182,0.289523 -0.75913,0.278536 -0.28444,-0.01315 -0.42537,0.183482 -0.41445,0.576709 0.0149,0.537994 0.15593,0.603978 1.43713,0.67231 1.43208,0.07637 1.67774,-0.03854 2.69441,-1.256254 0.81774,-0.979414 1.13496,-1.624275 1.16995,-2.3797 0.0195,-0.420269 0.21399,-0.898587 0.43253,-1.063501 0.3377,-0.254833 0.39885,-0.07226 0.40721,1.217497 0.008,1.284233 0.1139,1.601997 0.68626,2.070675 0.91738,0.751195 1.40797,0.426172 0.63562,-0.421163 -0.71915,-0.788991 -0.72509,-0.820177 -1.04386,-5.892664 -0.13771,-2.191518 -0.39287,-5.719443 -0.56741,-7.839831 -0.34028,-4.13367 -0.33752,-4.093759 -0.69659,-10.49445 -0.37624,-6.706748 -0.49455,-8.636204 -0.64751,-10.585917 -0.11589,-1.477925 -0.0707,-1.845931 0.23771,-1.948202 0.20912,-0.06927 0.45201,-0.0094 0.54002,0.132809 0.17763,0.287231 5.61003,3.285242 7.49308,4.135148 0.66133,0.298489 2.22746,1.078804 3.48041,1.734261 1.25294,0.655466 2.41173,1.198073 2.57452,1.205611 0.16278,0.0073 0.68616,0.175684 1.16324,0.373621 1.3501,0.560101 1.40499,1.090754 1.3286,12.852445 -0.0246,3.786412 0.0294,7.662841 0.1204,8.613945 0.091,0.951065 0.24571,2.746128 0.34365,3.988903 0.0979,1.242736 0.22097,2.738178 0.27337,3.323312 0.0523,0.585132 0.15031,2.037516 0.21756,3.227193 0.0672,1.189678 0.19241,2.289428 0.27853,2.444295 0.47439,0.853492 -1.51403,0.318449 -7.16597,-1.928564 -1.64499,-0.654 -3.46101,-1.326899 -4.03593,-1.494999 -0.57493,-0.168092 -1.28452,-0.477551 -1.57664,-0.687814 -0.42172,-0.303558 -0.73437,-0.328927 -1.51774,-0.12299 -1.47446,0.387602 -1.06668,0.801428 0.77101,0.782382 0.79476,-0.0087 1.38603,0.06829 1.63556,0.193786 l 0.005,-5.17e-4 1.01182,0.433049 c 0.14619,0.02583 0.29603,0.09265 0.44339,0.190169 l 7.4042,3.169316 c 0.24953,0.0657 0.57795,0.174431 0.9281,0.312125 0.67706,0.266254 1.44354,0.493364 1.70326,0.505396 0.89779,0.04162 1.41019,-1.738715 0.92552,-3.215824 -0.20069,-0.611669 -0.52769,-4.580672 -0.86764,-10.529074 -0.0801,-1.401357 -0.11691,-5.765476 -0.0822,-9.697082 0.0347,-3.931665 -0.0465,-8.218518 -0.18035,-9.52655 -0.20784,-2.03037 -0.34245,-2.464545 -0.91984,-2.970362 l -0.58911,-0.516247 -0.85111,-0.401526 -0.13229,-0.06563 c -0.17807,0.05822 -0.78173,-0.142183 -1.97973,-0.648023 -2.62104,-1.106677 -8.66365,-4.31857 -11.33419,-5.951574 l -0.15038,-0.07441 -2.85977,-1.686202 c -0.9021,5.7e-4 -1.66151,0.03114 -1.73633,0.14056 -0.11518,0.168437 -0.34868,0.163007 -0.66249,-0.01447 -0.29095,-0.164433 -4.75893,-0.489806 -8.68888,-0.701249 h -5.1e-4 c -1.30984,-0.07047 -2.55988,-0.128472 -3.5755,-0.163298 -1.35434,-0.04645 -2.29213,-0.05201 -2.39882,0.0072 -0.39167,0.217699 -13.99942,-0.260957 -23.014092,-0.702283 l -1.374076,-0.02946 z m 2.44998,0.865064 v 5.17e-4 c 0.900196,0.02773 1.747374,0.145408 1.738912,0.328145 -0.0051,0.110512 -0.295048,0.484421 -0.644405,0.830957 -1.428756,1.417144 -2.146069,4.578504 -1.593702,7.023861 0.143211,0.634007 0.650806,1.62747 1.128097,2.207617 0.988837,1.201689 0.8518,1.332227 -1.16272,1.107942 -0.959241,-0.10679 -1.451256,-0.04123 -1.69602,0.227377 -0.304588,0.334267 0.929461,0.423787 10.593156,0.767912 19.06732,0.678995 21.43148,0.729296 31.25907,0.65629 1.9456,-0.01441 2.07951,0.02031 2.44895,0.645439 0.51706,0.87491 0.22955,1.452808 -0.70074,1.409733 -0.41158,-0.01905 -0.89751,0.101324 -1.08003,0.267684 -0.22307,0.203297 -0.32735,0.207611 -0.31833,0.01292 0.0144,-0.311558 -1.95577,-0.404557 -2.281,-0.108004 -0.1041,0.09493 -0.32429,0.0496 -0.48937,-0.100769 -0.18696,-0.170326 -1.12344,-0.231978 -2.48306,-0.163814 -1.23993,0.06213 -2.2406,0.0052 -2.31665,-0.131775 -0.0771,-0.138592 -2.0613,-0.238905 -4.67413,-0.236678 -2.49724,0.002 -5.19425,-0.03251 -5.99344,-0.07648 -0.79918,-0.04397 -6.33401,-0.209063 -12.29951,-0.365353 v 10e-4 C 95.518781,61.0152 90.321727,60.926337 89.936112,60.974056 c -0.38561,0.04729 -0.749203,0.03293 -0.808736,-0.03256 -0.206005,-0.226026 0.633255,-13.659626 0.866097,-13.863237 0.20219,-0.176799 1.155494,-0.239174 2.055689,-0.211356 z m 4.185791,0.306441 c 0.30997,0.01139 0.698995,0.04533 1.216463,0.09095 2.344363,0.206656 2.986974,0.57377 3.994074,2.282548 1.02283,1.735542 1.00267,5.278173 -0.0408,7.107059 -0.4934,0.864788 -2.531548,2.237554 -3.010666,2.027783 -0.527713,-0.230996 -0.424401,-0.634564 0.155546,-0.607714 0.27322,0.01263 0.972043,-0.505375 1.55288,-1.150835 l 1.05575,-1.173571 0.0729,-2.366781 c 0.0588,-1.912437 -0.0225,-2.515863 -0.42633,-3.142444 -0.27488,-0.426505 -0.49499,-0.883459 -0.48886,-1.015958 0.0195,-0.42 -1.955721,-1.489343 -2.825667,-1.529623 -1.653783,-0.07662 -2.848853,0.841468 -4.028178,3.095418 -1.25289,2.394594 -0.905612,4.015032 1.398881,6.523117 0.747527,0.813576 1.315831,1.508082 1.262456,1.543058 -0.308655,0.202011 -2.11083,-1.137994 -2.966228,-2.20555 -1.106905,-1.381496 -1.376986,-2.698023 -1.00614,-4.898926 0.293069,-1.739315 0.842476,-2.717304 2.119251,-3.767729 0.81864,-0.673522 1.034813,-0.844458 1.964738,-0.810803 z m 5.660117,0.241329 c 0.41793,0.0087 0.9711,0.04323 1.67845,0.09715 l 2.24328,0.171565 -0.18862,5.619296 -0.18914,5.619812 -2.38383,-0.110071 c -2.37785,-0.110111 -2.79533,-0.317675 -1.87741,-0.93276 1.40107,-0.938559 1.96549,-2.88005 1.62316,-5.579504 -0.29728,-2.344232 -0.69261,-3.410562 -1.53324,-4.137215 -0.66361,-0.573623 -0.62646,-0.774853 0.62735,-0.748275 z m 5.57072,0.05013 c 0.10029,-0.0039 0.19794,2.79e-4 0.28681,0.01137 0.17774,0.02218 0.32177,0.07279 0.38964,0.147278 0.31005,0.340151 0.40656,3.985908 0.21497,8.123535 l -0.14728,3.171383 -0.82527,0.04237 -0.82527,0.04186 -0.0956,-1.806608 c -0.0527,-0.993454 -0.0827,-3.547604 -0.0662,-5.676139 l 0.03,-3.870565 0.73381,-0.148311 c 0.10089,-0.02039 0.20409,-0.03228 0.30437,-0.03617 z m 2.82102,0.04858 c 0.215,-0.0044 0.47315,0.0017 0.78238,0.01602 l 1.60869,0.07441 -0.98961,0.825272 c -0.5442,0.454018 -1.25813,1.344658 -1.58698,1.979208 -0.32886,0.634558 -0.65348,1.568603 -0.7214,2.075325 -0.0679,0.506673 -0.16024,-0.229161 -0.20516,-1.635042 -0.0449,-1.405872 6.9e-4,-2.744613 0.1018,-2.975012 0.10573,-0.241453 0.36526,-0.346856 1.01028,-0.360185 z m 7.54372,0.299723 1.39475,0.145728 1.39475,0.145211 -0.0202,1.058333 c -0.011,0.582193 0.022,1.65669 0.0734,2.387451 0.0514,0.730762 0.10876,2.712245 0.12713,4.403866 l 0.0331,3.075264 -1.02216,0.109554 c -0.56213,0.06021 -1.29313,0.176845 -1.62471,0.258899 -0.89976,0.222704 -0.73152,-0.378296 0.38189,-1.363741 1.12886,-0.99913 1.56651,-2.178926 1.6769,-4.519621 0.11231,-2.382092 -0.19404,-3.40577 -1.38751,-4.638993 z m 7.4626,0.0088 c 0.18372,-0.0037 0.35309,0.0049 0.48576,0.02584 0.17689,0.02858 0.28893,0.08132 0.28525,0.160714 -0.008,0.170137 0.29797,0.233128 0.7767,0.160197 0.43444,-0.06621 0.85546,-0.0016 0.93586,0.142627 0.14438,0.259819 -0.37869,0.359323 -1.27434,0.242362 -0.2534,-0.033 -0.46607,0.05921 -0.47284,0.205673 -0.007,0.150718 -0.29091,0.182719 -0.65423,0.07338 -0.66432,-0.199813 -0.90758,0.197028 -0.96015,1.565796 h 5.2e-4 c -0.0115,0.290833 -0.15418,1.058871 -0.31729,1.706873 l -0.29662,1.178222 -0.13126,-0.932759 c -0.2112,-1.502366 -0.11903,-3.974734 0.15658,-4.203878 0.23154,-0.192533 0.91488,-0.313149 1.46606,-0.325045 z m 4.08915,0.02584 c 0.21804,0.01035 0.39227,0.109908 0.38706,0.222209 -0.005,0.112302 0.38486,0.440718 0.86661,0.729671 0.68702,0.41207 0.93507,0.793118 1.14929,1.768368 0.1502,0.683918 0.36873,1.361498 0.48627,1.505334 0.11754,0.143837 0.16532,1.310808 0.10594,2.593124 -0.0961,2.075869 -0.18977,2.44316 -0.85266,3.3507 -1.10356,1.51072 -1.69985,1.308065 -0.69453,-0.236162 0.68941,-1.058907 0.80425,-1.485214 0.86196,-3.204972 0.0836,-2.490199 -0.0948,-3.430844 -0.84129,-4.435388 -0.56704,-0.76298 -0.59351,-0.771092 -0.6289,-0.201538 -0.0201,0.326838 0.0821,0.59995 0.22737,0.606681 0.14537,0.0072 0.25448,0.225647 0.24236,0.487309 -0.0121,0.26166 0.10327,0.613898 0.25684,0.782381 0.15357,0.168484 0.30567,1.08663 0.33796,2.040702 0.0514,1.518802 -0.0361,1.898141 -0.70435,3.043742 -0.41977,0.719624 -1.0343,1.554543 -1.36529,1.856218 v 5.16e-4 c -0.93357,0.85068 -2.32041,0.785343 -3.28611,-0.155029 -1.15677,-1.126585 -1.56686,-2.496628 -1.45262,-4.855518 0.0678,-1.399102 0.17027,-1.891056 0.33538,-1.607653 0.13081,0.224566 0.21429,0.951764 0.18552,1.616438 -0.0866,2.022314 0.95968,4.764981 1.5968,4.184241 0.106,-0.09663 0.0231,-0.30599 -0.18345,-0.465088 -0.36665,-0.28194 0.42475,-0.151477 1.63814,0.270268 0.2867,0.09965 0.84066,-0.219768 1.56838,-0.903304 1.21288,-1.139297 1.67878,-2.143549 1.22473,-2.641699 -0.15621,-0.171377 -0.27597,-0.555469 -0.26716,-0.853695 0.0216,-0.703026 -0.71661,-1.76676 -0.91106,-1.313098 -0.0765,0.178549 -0.36126,0.313864 -0.63304,0.301274 -1.01958,-0.04722 -1.8714,0.523947 -2.20658,1.479496 -0.29815,0.849947 -0.2657,1.059661 0.31006,1.998844 0.35372,0.576981 0.5825,1.104052 0.5085,1.171505 -0.25571,0.233085 -0.89568,-0.573049 -1.17823,-1.484147 -0.15591,-0.502788 -0.46737,-0.924467 -0.69246,-0.936894 -0.33775,-0.01863 -0.34354,-0.06088 -0.0315,-0.238745 0.2079,-0.11855 0.42537,-0.588945 0.48265,-1.045414 0.16361,-1.304501 0.93118,-1.905933 2.11822,-1.659331 0.77579,0.16117 0.9916,0.119675 1.00614,-0.194303 0.0276,-0.596906 -2.5636,-0.762176 -2.95641,-0.188619 -0.10868,0.158648 -0.28376,0.194572 -0.3886,0.07958 -0.10483,-0.115027 0.12916,-0.479232 0.51986,-0.809253 0.52611,-0.444406 0.78376,-0.519244 0.99374,-0.288871 0.20995,0.230362 0.28945,0.186601 0.30592,-0.168982 0.0172,-0.371404 0.17249,-0.444523 0.68627,-0.321428 0.79779,0.191155 1.54189,-0.680233 0.84232,-0.986503 -0.51416,-0.225126 -0.49089,-0.917085 0.03,-0.892969 z m 2.23088,0.183969 v 5.16e-4 c 0.156,2.18e-4 0.37036,0.02108 0.60513,0.06305 0.46959,0.08364 0.928,0.163047 1.01854,0.17725 0.16805,0.02597 0.22123,0.648662 0.48369,5.68079 0.0822,1.57637 0.23754,3.367853 0.34572,3.980635 0.13189,0.74708 0.0998,1.220434 -0.0977,1.437122 -0.31207,0.342445 -2.35197,0.291485 -2.33578,-0.05839 0.005,-0.113232 0.27443,-0.611136 0.59842,-1.106393 1.23426,-1.886713 1.09019,-6.104974 -0.3018,-8.831502 -0.31825,-0.623384 -0.57584,-1.200178 -0.57205,-1.282092 0.002,-0.0409 0.0997,-0.06153 0.2558,-0.06098 z m -9.6821,5.16e-4 h 5.2e-4 c 0.55937,0.026 0.66278,0.210332 0.87694,1.563729 0.13353,0.843822 0.25409,2.130763 0.26769,2.859774 0.0136,0.729012 0.0399,2.279516 0.0584,3.445784 0.0186,1.16627 0.0532,2.240674 0.077,2.387452 0.0234,0.146756 0.0222,0.414919 -0.003,0.595829 -0.0259,0.183119 -0.39832,0.312412 -0.83974,0.291972 -0.73842,-0.03417 -0.89192,-0.153802 -0.80099,-0.621668 0.0199,-0.101859 -0.0405,-2.366232 -0.13332,-5.032251 -0.0929,-2.666057 -0.16153,-4.999143 -0.15296,-5.184179 0.008,-0.184921 0.30084,-0.322437 0.64957,-0.306442 z m -7.13962,0.0078 c 0.24356,-0.01768 0.48894,-0.01567 0.73484,0.0057 0.65576,0.05694 1.31507,0.254168 1.95337,0.60048 1.21081,0.656931 1.39193,0.921231 1.94407,2.833936 0.30489,1.056254 0.30227,1.563807 -0.0165,3.134692 -0.42542,2.096476 -0.89226,2.765464 -2.7683,3.96565 -1.38591,0.886612 -1.66611,0.601498 -0.37569,-0.382406 1.58042,-1.205044 2.0065,-2.02834 2.10064,-4.061251 0.11265,-2.432891 -0.36239,-3.542243 -1.82056,-4.248836 -1.31043,-0.635007 -2.30926,-0.765424 -2.81068,-0.367419 -0.18266,0.14498 -0.75776,0.446114 -1.27796,0.669209 -2.21959,0.95191 -2.6982,4.87054 -0.84335,6.905522 0.33847,0.371337 0.38408,0.5419 0.14262,0.530717 -1.47676,-0.06834 -2.43544,-4.675447 -1.3596,-6.533451 1.07649,-1.859157 2.69222,-2.928742 4.39714,-3.052527 z m -17.225302,0.207222 c 0.966734,0.07943 2.044734,1.004266 2.603462,2.233972 0.56706,1.248069 0.69086,2.667154 0.23047,2.645834 -0.14537,-0.0072 -0.24864,-0.360767 -0.22892,-0.786516 0.0365,-0.789002 -1.339542,-2.729434 -1.955956,-2.757971 -0.472956,-0.02195 -0.367141,0.360782 0.224792,0.812871 1.37106,1.047113 1.570794,4.227256 0.348816,5.550048 -0.972941,1.053267 -1.742156,0.9655 -2.995166,-0.342098 -1.098824,-1.146682 -1.214634,-1.787725 -0.638721,-3.541902 0.39763,-1.21118 1.190276,-2.035918 1.923914,-2.001945 0.318927,0.01481 0.51157,-0.09531 0.428398,-0.244947 -0.242898,-0.437015 -1.323318,-0.366377 -1.77767,0.116272 -0.229961,0.244276 -0.692935,0.968184 -1.028877,1.608171 -0.864455,1.646799 -0.580545,3.28103 0.808736,4.658114 1.834777,1.81866 3.920595,1.18573 4.522204,-1.372526 0.35964,-1.52936 0.63718,-1.787096 0.57929,-0.536919 -0.0524,1.131488 -0.9785,2.545145 -2.034498,3.10472 -1.634025,0.86592 -3.280605,0.203654 -4.302063,-1.730126 -1.144878,-2.167426 -1.156497,-2.993219 -0.07235,-5.081861 0.583376,-1.123905 2.436201,-2.409393 3.364136,-2.333191 z m 29.331022,1.102775 c 0.15885,-0.0077 0.29095,0.02412 0.36742,0.108004 0.076,0.08342 0.0289,0.146551 -0.10438,0.14056 -0.13327,-0.0062 -0.6016,0.270242 -1.04077,0.613916 -0.98911,0.773982 -1.04951,0.773368 -0.64802,-0.0098 0.22612,-0.440971 0.94924,-0.828167 1.42575,-0.852661 z m -9.93996,1.064535 0.46457,1.165303 c 0.25576,0.640816 0.4445,1.676036 0.41858,2.300635 -0.053,1.295416 -1.0575,3.189823 -2.06137,3.888652 -0.88067,0.613074 -1.54278,0.795756 -1.72083,0.475423 -0.0813,-0.146139 0.25446,-0.412273 0.74673,-0.592212 1.57294,-0.574957 2.1378,-1.415759 2.2257,-3.31401 0.0854,-1.843924 -0.26545,-2.430502 -1.88722,-3.158463 -1.03728,-0.465616 -1.72179,-0.286242 -2.62206,0.68833 -0.893,0.966685 -0.97882,2.217092 -0.23978,3.495394 0.7087,1.225895 1.77024,1.568348 2.77141,0.893485 0.97465,-0.656934 1.2138,-2.32841 0.44235,-3.094385 -0.4984,-0.49486 -0.57721,-0.502526 -1.26504,-0.129707 -0.96321,0.522072 -1.14684,1.551108 -0.38189,2.141471 0.69212,0.534147 0.46448,0.841766 -0.4253,0.574125 -0.45498,-0.136852 -0.6927,-0.449236 -0.80718,-1.062467 -0.23843,-1.276999 -0.0707,-1.851222 0.73173,-2.507341 0.54979,-0.449628 0.90321,-0.541273 1.50896,-0.390674 1.3175,0.32754 1.71865,0.936293 1.64641,2.496489 -0.0574,1.23922 -0.16942,1.482211 -1.05937,2.2934 -1.20284,1.096373 -2.164,1.137824 -3.24528,0.139009 -0.95348,-0.880762 -1.25573,-1.881443 -1.05368,-3.490743 0.25649,-2.042833 1.22956,-2.691958 4.15013,-2.768306 z m -19.656679,0.26665 c -0.108283,0.02109 -0.231221,0.06297 -0.379822,0.122473 -0.380263,0.152428 -0.885022,0.686524 -1.121895,1.187008 -0.380464,0.803817 -0.388833,1.002176 -0.06718,1.701705 0.200267,0.435548 0.620904,0.990089 0.93431,1.231966 0.812074,0.626738 1.644334,0.587285 2.142505,-0.101286 0.565811,-0.782073 0.228115,-2.827717 -0.608748,-3.690214 -0.252797,-0.260501 -0.4238,-0.402705 -0.606165,-0.449585 -0.09118,-0.02345 -0.184722,-0.02316 -0.293005,-0.0021 z m -0.132292,0.61805 c 0.104672,0.0052 0.21337,0.053 0.321944,0.151929 0.316413,0.288332 0.288492,0.362942 -0.191719,0.515731 -0.969588,0.308493 -0.588357,2.299947 0.455786,2.380733 0.57044,0.04411 0.573705,0.0565 0.0615,0.24908 -0.759913,0.285685 -0.756003,0.28661 -1.258838,-0.393257 -0.682132,-0.922312 -0.12141,-2.943548 0.611332,-2.904216 z m -11.052038,0.162264 c -0.200586,-0.02342 -0.420098,0.03057 -0.549321,0.148312 -0.172288,0.157037 -0.527445,0.275664 -0.789099,0.263549 -0.26166,-0.01212 -0.480789,0.08431 -0.486792,0.213941 -0.006,0.129601 -0.32514,0.29909 -0.709001,0.376721 -0.660038,0.133534 -1.260558,0.355131 -4.601269,1.693954 -0.770068,0.308608 -1.539876,0.554098 -1.709973,0.546219 -0.671227,-0.03106 -2.951567,1.075661 -2.986898,1.449524 -0.02066,0.218368 -0.09785,0.811276 -0.171049,1.317749 -0.344361,2.384045 -0.933046,10.289346 -0.796851,10.700122 0.130721,0.394297 0.377813,0.445927 1.676901,0.351917 1.728077,-0.12505 3.94118,-0.556151 4.236433,-0.825273 0.108774,-0.09913 0.472303,-0.167967 0.807703,-0.152445 0.877154,0.04059 4.695582,-1.313073 5.347994,-1.896008 0.518886,-0.463638 0.576437,-0.904206 0.949813,-7.222815 0.357243,-6.045675 0.35456,-6.748189 -0.02842,-6.915857 -0.05862,-0.02569 -0.123307,-0.0418 -0.190169,-0.04961 z m -0.491443,0.861446 c 0.279169,0.190892 0.162252,3.246365 -0.337964,8.818584 l -0.360702,4.014742 -1.030944,0.467155 c -1.068331,0.484116 -5.760147,1.834176 -6.288506,1.809708 -0.165033,-0.0073 -0.982037,0.177006 -1.815393,0.409794 -2.136823,0.596872 -2.185793,0.487566 -1.627807,-3.61735 0.246509,-1.81348 0.496918,-4.351036 0.556555,-5.638932 l 0.108004,-2.341459 0.874365,-0.286288 c 0.48072,-0.157068 1.660644,-0.542177 2.622062,-0.855761 0.961407,-0.313536 2.943666,-1.103493 4.405416,-1.755966 1.461752,-0.652411 2.764573,-1.113343 2.894914,-1.024227 z m 12.56099,0.0016 c 0.128762,-0.0201 0.122885,0.205293 0.0956,0.7953 -0.04846,1.046783 -0.411132,1.244729 -0.797368,0.435116 -0.18664,-0.391226 -0.117922,-0.60975 0.299723,-0.953947 0.19856,-0.163665 0.324833,-0.264411 0.402043,-0.276469 z m 30.368172,0.812353 c 0.48338,0.0028 0.94968,0.250648 1.341,0.714169 0.58955,0.698344 0.59077,0.724046 0.094,1.527038 -0.33164,0.536175 -0.74362,0.8347 -1.19941,0.867647 -0.60673,0.04384 -0.72895,-0.08801 -0.96686,-1.040246 -0.29271,-1.171575 -0.16536,-1.503316 0.46974,-1.225248 0.2439,0.106797 0.38524,0.501241 0.36173,1.008724 -0.0329,0.710978 0.022,0.788456 0.37311,0.523482 0.22643,-0.170871 0.42195,-0.534266 0.4346,-0.807186 0.0126,-0.272931 -0.15506,-0.504602 -0.37311,-0.514697 -0.21799,-0.01035 -0.3889,-0.18793 -0.3793,-0.395325 0.009,-0.207385 -0.18794,-0.441657 -0.43925,-0.519865 -0.27614,-0.08594 -0.16399,-0.140603 0.2837,-0.138493 z m 8.94157,0.14056 c -0.10492,-0.01977 -0.23229,-0.0075 -0.37878,0.04031 -0.25385,0.0841 -0.30999,0.620069 -0.22841,2.197798 0.0594,1.147724 0.21836,4.369292 0.35346,7.158737 0.266,5.492603 0.49173,6.330844 1.80713,6.709151 0.39353,0.113124 1.00601,0.374807 1.36064,0.58136 0.35463,0.206551 1.28988,0.599837 2.07842,0.873848 0.78854,0.274031 1.66653,0.623396 1.95079,0.776697 0.28426,0.153281 1.04406,0.47005 1.68878,0.703833 h 5.2e-4 c 0.64472,0.233773 1.51841,0.448944 1.94097,0.478524 l 0.76791,0.05374 0.12764,-6.452319 c 0.0702,-3.54851 0.0681,-6.63075 -0.004,-6.849194 -0.0724,-0.218425 -1.5594,-1.076446 -3.30471,-1.906344 -3.23597,-1.538712 -4.05652,-1.835125 -3.15795,-1.142049 1.02088,0.787469 2.93177,1.888957 3.30729,1.906343 0.21269,0.01034 0.84876,0.29259 1.41335,0.628386 1.23434,0.734167 1.23704,0.753991 1.16582,8.033101 l -0.0486,4.964038 -0.6904,-0.03204 c -0.94359,-0.0437 -4.50088,-1.374625 -6.42338,-2.402954 -0.21323,-0.114058 -0.94531,-0.398382 -1.62677,-0.632003 -0.72315,-0.247917 -1.29105,-0.619293 -1.36374,-0.891418 -0.17549,-0.656909 -0.34265,-6.143725 -0.19379,-6.361369 0.0676,-0.09879 0.005,-0.26 -0.13798,-0.358118 -0.1435,-0.09813 -0.22353,-1.094 -0.17776,-2.212268 0.0458,-1.118277 0.005,-2.566041 -0.0904,-3.217891 -0.0966,-0.662144 -0.0597,-1.445792 0.0832,-1.775086 0.205,-0.472194 0.0956,-0.813506 -0.21911,-0.872815 z m -22.6751,0.110588 c 0.27733,0.0034 0.54614,0.194207 0.58188,0.566373 0.0391,0.407172 -0.11002,0.533399 -0.63562,0.538986 -0.56039,0.0061 -0.66729,-0.09644 -0.57981,-0.556556 0.0704,-0.370688 0.35623,-0.552713 0.63355,-0.548803 z m -5.50095,1.729093 c 0.0443,0.0091 0.099,0.07205 0.16794,0.176217 0.17834,0.269203 0.31503,0.696177 0.30334,0.948779 -0.0222,0.479105 1.24763,2.047619 2.13166,2.633431 0.43395,0.287609 0.26049,0.330197 -1.1405,0.278536 -0.90894,-0.03304 -1.66112,-0.09068 -1.67173,-0.127641 -0.0107,-0.03692 -0.003,-1.002441 0.017,-2.145088 0.0234,-1.326334 0.0592,-1.790675 0.19224,-1.764234 z m 14.69316,1.607137 c 0.0186,-0.003 0.0381,9.96e-4 0.0579,0.01499 0.14121,0.09652 0.25078,0.30568 0.2434,0.465088 -0.007,0.159409 0.27181,0.701812 0.62012,1.205095 l 0.63303,0.915706 -0.93844,-0.04341 -0.93845,-0.04393 0.062,-1.337386 c 0.0335,-0.721087 0.13053,-1.152172 0.26045,-1.176156 z m -41.756112,0.0062 v 5.17e-4 c -0.04878,-0.0041 -0.104457,-2.8e-4 -0.167432,0.0072 -0.658393,0.07966 -4.425696,1.705251 -4.624007,1.995227 -0.318492,0.465704 1.050427,0.220985 2.566768,-0.45837 0.884084,-0.396089 1.734317,-0.71411 1.889291,-0.706934 0.184582,0.0083 0.216033,0.850994 0.0925,2.442229 L 81.82498,62.4396 80.879301,62.845776 c -1.774499,0.762087 -2.914228,1.160869 -3.271118,1.144633 -0.270406,-0.01233 -0.332377,-0.543006 -0.255799,-2.196765 0.149683,-3.232474 -0.373458,-3.032332 -0.615983,0.235645 -0.200338,2.699593 -0.19929,2.70595 0.433049,2.735233 0.679236,0.03148 4.315223,-1.195284 4.93975,-1.666565 0.288568,-0.217771 0.392937,-1.003479 0.444934,-3.354317 0.05616,-2.540341 0.0438,-2.983161 -0.297656,-3.013253 z m 59.081662,2.50114 c -0.56451,0.0431 -0.51649,0.778289 -0.30851,2.82205 0.29687,2.917121 0.8006,3.019063 0.68317,0.137976 l -0.0863,-2.122868 0.65319,0.02997 c 0.35966,0.01667 1.11939,0.30688 1.68775,0.644922 0.65498,0.389569 1.21431,0.550853 1.52756,0.4408 0.42889,-0.15069 0.39162,-0.222106 -0.28319,-0.540535 -0.42768,-0.201809 -1.5157,-0.651385 -2.41743,-0.998906 -0.50659,-0.195243 -0.88991,-0.337158 -1.17512,-0.39119 -0.10694,-0.02027 -0.20046,-0.02869 -0.28112,-0.02222 z m 4.96973,2.195731 c -0.14178,0.0048 -0.26792,1.225989 -0.27647,3.662826 -0.0131,3.876341 -0.16475,4.550452 -0.88884,3.952213 -0.16925,-0.139807 -0.80774,-0.437777 -1.41852,-0.661975 -1.32695,-0.487074 -1.54382,-0.739099 -1.75183,-2.039669 -0.20795,-1.300369 -0.66229,-1.275228 -0.77669,0.04289 -0.11566,1.332667 0.35969,1.818057 2.7776,2.834452 2.27092,0.954541 2.17864,0.93391 2.44378,0.54622 0.33477,-0.489499 0.36992,-1.126077 0.26304,-4.694287 -0.0729,-2.434277 -0.23029,-3.647147 -0.37207,-3.642672 z m -51.229436,0.169499 5.488556,0.02894 6.86056,0.204638 9.39013,0.294556 14.47973,0.480074 2.85099,0.350883 0.0935,0.124024 0.016,0.269234 c 0.12432,0.556557 0.29197,2.800757 0.54416,7.394897 0.0641,1.168393 0.19047,2.394005 0.2806,2.723348 0.24524,0.896219 -0.82042,1.128352 -4.62194,1.007174 l -3.24528,-0.103353 -0.94516,0.939994 v 5.17e-4 c -0.51957,0.516937 -1.13115,1.181037 -1.35909,1.476396 -0.51308,0.664866 -0.70457,0.360571 -0.48008,-0.762744 0.11806,-0.590903 0.31312,-0.846427 0.63614,-0.831474 0.25642,0.01191 0.62274,-0.149861 0.81391,-0.359668 0.30757,-0.337493 -0.19651,-0.390848 -4.38217,-0.464054 -2.60159,-0.04553 -5.50001,-0.05498 -6.44095,-0.02067 -0.94095,0.03431 -4.27684,0.01057 -7.4135,-0.05271 -8.16898,-0.164854 -14.329957,-0.187039 -17.956008,-0.0646 -1.622002,0.05473 -1.657366,0.04204 -1.627807,-0.596346 0.01662,-0.358893 0.137658,-0.712152 0.268717,-0.784965 0.131049,-0.07279 2.289807,-0.100219 4.79764,-0.06046 1.678307,0.02656 3.040958,0.01375 4.034379,-0.01447 l -4.794022,-0.526066 -0.66611,-0.08785 c -1.121804,0.125311 -3.272897,0.01707 -3.4401,-0.283704 -0.177756,-0.319812 0.488554,-9.00651 0.749309,-9.768396 0.108671,-0.317538 0.550719,-0.409147 1.876888,-0.390674 l 1.663981,0.02274 0.01499,-0.0083 c 0.196664,0.0093 2.511991,-0.136943 2.511991,-0.136943 z m 9.444386,2.195732 c -1.04364,0 -1.90353,0.327226 -2.57969,0.981335 -0.67248,0.654109 -1.00872,1.486444 -1.00872,2.497005 0,1.010562 0.33624,1.840887 1.00872,2.491321 0.67248,0.650434 1.53238,0.975651 2.57969,0.975651 1.05098,0 1.9149,-0.325217 2.59106,-0.975651 0.67615,-0.650434 1.01389,-1.480759 1.01389,-2.491321 0,-1.010561 -0.33774,-1.842896 -1.01389,-2.497005 -0.67616,-0.654109 -1.54008,-0.981335 -2.59106,-0.981335 z m 22.18676,0 -1.89601,5.082377 c -0.18741,0.507118 -0.37684,0.872413 -0.56792,1.096574 -0.19109,0.22416 -0.41508,0.358462 -0.67231,0.402559 v 0.192753 h 2.1332 V 70.37412 c -0.44097,-0.117593 -0.66146,-0.321542 -0.66146,-0.611849 0,-0.135966 0.0421,-0.315858 0.12661,-0.540019 l 0.33073,-0.876432 h 2.34817 l 0.38034,1.013892 c 0.0845,0.227835 0.12661,0.397219 0.12661,0.507462 0,0.135967 -0.0566,0.24219 -0.17053,0.319361 -0.11025,0.07349 -0.30168,0.136138 -0.57361,0.187585 v 0.192753 h 3.23598 V 70.37412 c -0.28296,-0.02205 -0.51298,-0.12477 -0.68937,-0.308508 -0.17639,-0.187413 -0.35628,-0.51665 -0.54001,-0.98702 l -2.0066,-5.285982 z m -35.360634,0.171049 v 0.192753 c 0.32338,0.04777 0.541856,0.135966 0.655774,0.264583 0.117593,0.124942 0.176733,0.337906 0.176733,0.639237 v 4.387846 c 0,0.286632 -0.05363,0.496094 -0.160196,0.628386 -0.102894,0.128617 -0.326883,0.227835 -0.672311,0.297656 v 0.192753 h 3.979602 c 0.661459,0 1.190625,-0.159852 1.5875,-0.479557 0.396875,-0.319705 0.595313,-0.738629 0.595313,-1.256771 0,-0.933391 -0.624366,-1.51366 -1.873788,-1.741496 v -0.02222 c 0.977489,-0.271933 1.466061,-0.790075 1.466061,-1.554427 0,-0.492419 -0.200448,-0.872757 -0.600997,-1.141015 -0.40055,-0.271933 -0.957277,-0.407727 -1.670183,-0.407727 z m 20.858154,0 v 0.192753 c 0.36013,0.01102 0.67984,0.161862 0.95912,0.452168 l -0.65629,4.310332 c -0.0808,0.518142 -0.20912,0.887456 -0.38551,1.107942 -0.17639,0.216812 -0.43948,0.332567 -0.78858,0.347266 v 0.192753 h 2.39262 V 70.37412 c -0.54019,-0.04042 -0.81029,-0.349103 -0.81029,-0.926042 0,-0.124942 0.011,-0.264755 0.0331,-0.419096 l 0.57309,-3.880383 2.14405,5.418274 h 0.2372 l 2.17196,-5.418274 0.54002,3.770313 c 0.0257,0.194762 0.0387,0.360127 0.0387,0.496093 0,0.275608 -0.0591,0.48708 -0.17673,0.63407 -0.11759,0.146991 -0.31201,0.255224 -0.58394,0.325045 v 0.192753 h 3.26285 V 70.37412 c -0.30868,-0.0588 -0.5437,-0.169039 -0.70539,-0.330729 -0.15801,-0.16169 -0.25924,-0.3932 -0.30334,-0.694531 l -0.59531,-4.123263 c -0.0147,-0.106568 -0.0217,-0.201768 -0.0217,-0.286287 0,-0.227836 0.0606,-0.402732 0.1819,-0.523999 0.12126,-0.124943 0.31568,-0.211127 0.58394,-0.258899 v -0.192753 h -2.23759 l -1.7477,4.354256 -1.72496,-4.354256 z m -7.68428,0.203605 c 0.66146,0 1.16306,0.268602 1.50482,0.805119 0.34542,0.536516 0.51831,1.317232 0.51831,2.342492 0,0.973814 -0.1784,1.725476 -0.53485,2.254643 -0.35645,0.529167 -0.85255,0.79375 -1.48828,0.79375 -0.64676,0 -1.14285,-0.266593 -1.48828,-0.799434 -0.34543,-0.532842 -0.5178,-1.278992 -0.5178,-2.238107 0,-1.03261 0.17088,-1.816828 0.51263,-2.353344 0.34175,-0.536517 0.83934,-0.805119 1.49345,-0.805119 z m -10.886158,0.171049 h 0.429948 c 0.970139,0 1.455208,0.438962 1.455208,1.317232 0,0.418924 -0.119774,0.74615 -0.358634,0.981335 -0.23886,0.235186 -0.56959,0.35295 -0.992188,0.35295 h -0.534334 z m 33.028988,0.854211 1.00304,2.678906 h -1.96215 z M 93.636662,67.3588 h 0.782381 c 0.474045,0 0.843359,0.130799 1.107943,0.391708 0.268258,0.260908 0.402559,0.608174 0.402559,1.041796 0,0.437298 -0.119258,0.780544 -0.358118,1.030428 -0.235185,0.24621 -0.560402,0.369487 -0.975651,0.369487 -0.345428,0 -0.591982,-0.06063 -0.738973,-0.181901 -0.14699,-0.124942 -0.220141,-0.334404 -0.220141,-0.628385 z m -9.587012,4.245736 c -0.977407,-0.0066 -7.052385,1.152163 -8.363314,1.594735 -0.339941,0.11477 -0.835657,0.198357 -1.101741,0.186035 -1.055883,-0.04887 -1.143868,0.310365 -1.859318,7.595402 -0.19376,1.972964 -0.207429,3.299556 -0.03824,3.797184 0.249201,0.733006 0.317774,0.761287 1.651062,0.694531 2.818709,-0.141151 6.27252,-0.921287 8.763806,-1.980757 l 1.215947,-0.517798 0.172599,-3.037541 c 0.09509,-1.67088 0.230464,-3.870054 0.300757,-4.886523 0.221609,-3.202829 0.170816,-3.439551 -0.741558,-3.445268 z m 48.12368,0.703833 -3.14296,0.07751 c -0.003,0.03109 -8.5e-4,0.06408 0.0202,0.102836 0.10913,0.196342 0.96855,0.285766 2.54972,0.264583 2.6289,-0.03513 3.47583,-0.274547 1.32498,-0.374137 -0.2935,-0.01357 -0.5295,-0.04215 -0.75189,-0.0708 z m -48.075104,0.03101 c 0.09696,0.06625 0.107755,1.230956 0.02377,2.588472 -0.08388,1.357518 -0.21805,3.613061 -0.298173,5.012614 l -0.145727,2.544548 -1.528073,0.662492 c -0.840624,0.364066 -2.31996,0.775102 -3.287137,0.913639 -0.967168,0.138536 -2.24095,0.369341 -2.830319,0.513147 -1.593237,0.388793 -2.390321,0.482119 -2.557983,0.298173 -0.17048,-0.187031 0.372198,-8.844323 0.630969,-10.066052 0.130263,-0.614924 0.37549,-0.864345 1.059367,-1.07642 0.489638,-0.151834 1.19146,-0.262517 1.559595,-0.245464 0.36813,0.01708 2.138377,-0.260749 3.93361,-0.617533 1.795232,-0.356773 3.343161,-0.59387 3.4401,-0.527616 z m 16.824294,0.02791 -0.22841,0.04703 c 0.007,0.02871 -0.005,0.04973 0.0124,0.08217 0.22811,0.410392 18.04418,0.745017 18.37924,0.345199 0.0778,-0.09288 1.21277,-0.133318 2.52181,-0.0894 5.20829,0.174599 5.42181,0.166129 5.43998,-0.226342 0.001,-0.027 -0.0206,-0.0596 -0.032,-0.08992 l -4.55993,0.112654 -4.97282,-0.09147 -11.68714,0.01654 z m -1.106907,0.228927 -0.192753,0.04031 c 0.0193,5.41e-4 0.03243,0.01382 0.05323,0.01085 0.06011,-0.0089 0.09213,-0.03393 0.139527,-0.05116 z m -8.26978,2.179195 c 0.08502,-0.0049 0.154602,-0.0034 0.21084,0.0057 v -5.17e-4 c 0.168729,0.02857 0.218521,0.128074 0.209806,0.31626 -0.01063,0.229604 -0.129856,0.411904 -0.264583,0.40566 -0.327109,-0.01512 -1.116721,1.428486 -1.453658,2.657202 -0.372841,1.359619 -0.08111,4.570917 0.518315,5.703528 0.270548,0.51119 0.419338,1.036485 0.330212,1.166854 -0.247483,0.361858 -3.140388,0.145828 -3.661275,-0.273368 -0.416072,-0.33484 -0.429161,-0.701604 -0.140043,-3.913457 0.175444,-1.949102 0.424307,-4.109084 0.552938,-4.80074 l 0.234094,-1.257804 1.083655,0.101802 c 0.59597,0.05575 1.47393,0.03162 1.951302,-0.05323 0.173907,-0.03092 0.31502,-0.05066 0.428397,-0.05788 z m 2.765206,0.06666 c 0.22805,-0.02054 0.260062,0.0863 -0.0124,0.331763 -0.200875,0.180952 -0.549736,0.389389 -0.775663,0.463021 -0.225933,0.07364 -0.783953,0.750121 -1.240235,1.503267 -1.112758,1.836786 -1.231498,4.131897 -0.31626,6.115389 0.340595,0.738151 0.617176,1.390805 0.614433,1.450041 -0.0027,0.0592 -0.172002,0.09986 -0.375687,0.09043 -0.658525,-0.03054 -1.340683,-1.758113 -1.345138,-3.406511 -0.01049,-3.837647 0.487915,-5.168518 2.289783,-6.111771 0.509665,-0.266792 0.933121,-0.415084 1.161169,-0.435633 z m 43.969931,0.0093 c -0.49185,-0.03358 -0.52582,0.190282 -0.39068,0.597896 0.14799,0.446375 0.40177,6.076495 0.39068,8.663038 -0.006,1.38905 0.15941,1.586441 1.64744,1.965771 l 0.91622,0.233061 -0.89607,-0.674378 c -0.79788,-0.601045 -0.90978,-0.848534 -1.02732,-2.26136 -0.0726,-0.872436 -0.12852,-2.988692 -0.12403,-4.702556 0.007,-2.784639 0.0576,-3.132273 0.47336,-3.270084 0.26464,-0.08778 0.50409,-0.0179 0.555,0.162264 0.0492,0.174168 0.19951,0.321901 0.33435,0.328145 0.23986,0.01108 2.2594,0.968013 3.14709,1.491382 0.24619,0.14517 0.60803,0.27207 0.80357,0.28112 0.6997,0.03241 3.96848,1.321027 4.40387,1.736328 0.26493,0.252719 0.42951,0.807286 0.40824,1.374593 -0.0192,0.522819 0.14897,2.270099 0.37466,3.882967 0.22568,1.612898 0.4516,3.39861 0.50178,3.96875 0.087,0.988488 0.0625,1.02703 -0.52659,0.826306 -0.33977,-0.115739 -1.031,-0.290309 -1.53634,-0.38809 l -0.9188,-0.177767 0.97358,0.597897 c 0.53557,0.329189 1.0672,0.546942 1.18184,0.483174 0.11464,-0.06382 0.37644,0.0019 0.58136,0.145211 1.00161,0.700558 1.08259,0.285701 0.64699,-3.31711 -0.21104,-1.745536 -0.47331,-3.952636 -0.58291,-4.90461 -0.37533,-3.260026 -0.13893,-2.982259 -3.73104,-4.383195 -4.69556,-1.831257 -6.78651,-2.602853 -7.60625,-2.658753 z m -57.205299,0.03669 c -0.133562,-0.0032 -0.280749,0.0028 -0.440283,0.0186 -1.384493,0.137035 -4.569764,0.940187 -4.74493,1.196309 -0.08053,0.117802 -0.220919,1.48196 -0.311609,3.031857 -0.125773,2.14929 -0.07972,2.880235 0.19327,3.079398 0.196851,0.143663 0.658121,0.209049 1.025261,0.145211 0.367148,-0.06392 1.179364,-0.164077 1.804541,-0.222725 0.625185,-0.05861 1.205054,-0.206186 1.28881,-0.328663 0.08376,-0.122477 0.424245,-0.210723 0.756543,-0.195336 1.233563,0.05716 1.551465,-0.670785 1.530656,-3.504179 -0.01042,-1.419027 -0.140813,-2.741789 -0.289905,-2.939356 -0.132192,-0.17516 -0.411691,-0.270518 -0.812354,-0.280603 z m 25.997379,0.0016 c 0.43609,0.02019 0.80481,0.186207 0.81907,0.368969 0.0979,1.251466 0.10899,2.184271 0.078,6.493144 l -0.0346,4.832263 -0.94723,-0.04393 c -0.67504,-0.03127 -0.97839,-0.178514 -1.05781,-0.51263 -0.097,-0.408254 0.16751,-9.964039 0.30024,-10.845849 0.0275,-0.182406 0.40244,-0.31234 0.84232,-0.291972 z m 2.69338,0.125573 c 0.43266,0.02009 0.74015,0.123351 0.68316,0.229961 -0.057,0.106619 -0.35655,0.568591 -0.66559,1.02681 -0.66417,0.984797 -1.23479,1.064202 -1.19321,0.166398 0.0512,-1.105899 0.34538,-1.461605 1.17564,-1.423169 z m 23.65747,0.09715 c 0.21593,-6.08e-4 0.40478,-0.0016 0.57051,0.0047 v 5.17e-4 c 1.1601,0.04264 1.19072,0.420832 1.49654,3.553788 0.12579,1.2885 0.15198,2.412222 0.0589,2.497005 -0.0931,0.08475 -0.15437,-0.163229 -0.13643,-0.550871 0.0179,-0.387631 -0.0713,-0.70931 -0.19844,-0.715201 -0.12719,-0.0062 -0.28329,-0.349384 -0.34623,-0.762745 -0.13088,-0.859397 -1.52102,-2.839164 -2.26601,-3.226676 -0.95104,-0.494708 -0.64144,-0.796618 0.82114,-0.800468 z m -21.12481,0.0072 c 0.19888,-0.02129 0.32324,0.04996 0.31471,0.234094 -0.005,0.113372 -0.44153,0.577779 -0.96945,1.031462 -0.61111,0.525171 -1.12849,1.30946 -1.4242,2.159041 -0.57478,1.651239 -0.57788,1.728315 -0.13695,3.255615 0.41542,1.439129 0.26789,1.798255 -0.32608,0.793233 -1.19653,-2.024658 -0.69116,-4.837956 1.20097,-6.684346 0.47165,-0.460263 1.00956,-0.753505 1.341,-0.789099 z m 3.96358,0.0093 5.2e-4,5.16e-4 c 0.4273,0.02278 1.63124,0.587646 1.62109,0.806669 -0.006,0.12528 0.4398,0.684747 0.9896,1.242819 l 0.99942,1.014408 -0.23461,1.746663 c -0.28872,2.150283 -0.74298,2.751507 -0.65577,0.868164 0.0346,-0.747325 -0.0526,-1.437739 -0.19379,-1.534273 -0.1412,-0.09652 -0.24076,-0.512522 -0.22169,-0.924491 0.0196,-0.42199 -0.13564,-0.823783 -0.35502,-0.919841 -0.45705,-0.200104 -0.49001,-0.07186 -0.16019,0.619601 0.14013,0.293802 0.13887,0.564814 -0.002,0.643371 -0.13425,0.07459 -0.30598,-0.05317 -0.38241,-0.283703 -0.0764,-0.230481 -0.2577,-0.353342 -0.40256,-0.272852 -0.16942,0.09413 -0.18382,0.390073 -0.0408,0.82734 0.30703,0.935807 0.2663,1.177404 -0.19585,1.156002 -0.21804,-0.01035 -0.39121,-0.137312 -0.38448,-0.28267 0.006,-0.14537 -0.10681,-0.269739 -0.25218,-0.276469 -0.14536,-0.0062 -0.27133,0.14239 -0.28008,0.331246 -0.0109,0.234042 -0.29822,0.296896 -0.90538,0.197404 -0.48894,-0.08018 -0.976,-0.01791 -1.08262,0.137976 -0.3188,0.466154 0.0358,1.279213 0.65371,1.499133 0.35215,0.125339 0.44607,0.25281 0.24081,0.326595 -0.18517,0.06661 -0.34161,0.230034 -0.34778,0.363285 -0.017,0.367383 0.98286,0.336031 1.13533,-0.03566 0.0734,-0.178684 0.23432,-0.220997 0.3576,-0.09302 0.12674,0.131641 -0.13336,0.493745 -0.59841,0.832507 -0.89051,0.648709 -1.31122,0.692592 -2.16783,0.227893 -0.56882,-0.308592 -1.51958,-2.28907 -1.2268,-2.555916 0.29446,-0.268363 0.6425,0.166226 0.76223,0.952397 0.0646,0.424662 0.31528,0.858905 0.55707,0.964799 0.63048,0.275979 0.85554,-0.04784 0.32815,-0.472323 -0.51586,-0.415159 -0.54166,-1.921095 -0.0357,-2.080493 0.26546,-0.08358 0.26734,-0.184964 0.009,-0.484725 -0.27601,-0.319408 -0.41329,-0.279132 -0.86713,0.257349 -0.53891,0.636766 -0.53881,0.636991 -0.51728,0.04237 0.0121,-0.3272 0.14041,-0.589124 0.28577,-0.582393 0.14537,0.0062 0.27226,-0.162721 0.28215,-0.376205 0.0116,-0.250851 -0.13774,-0.336661 -0.4222,-0.242362 -0.69816,0.231473 -0.26633,-0.539439 0.49558,-0.884701 0.36025,-0.163258 1.10069,-0.278008 1.64589,-0.254764 0.54522,0.02327 0.99683,-0.07629 1.00356,-0.221692 0.0169,-0.364924 -1.6504,-0.409718 -2.56677,-0.06873 -1.65787,0.616921 -1.98425,1.112263 -2.07894,3.156913 -0.0515,1.112409 0.0368,2.019365 0.21549,2.215369 0.16633,0.182524 0.21079,0.328166 0.0987,0.322978 -0.54964,-0.02547 -0.78843,-0.84524 -0.70435,-2.416907 0.13863,-2.58927 0.14886,-2.613682 1.55391,-3.794084 1.4529,-1.220596 2.59109,-1.389291 3.96979,-0.587044 0.40631,0.236444 0.95536,0.440559 1.22008,0.453719 0.4027,0.01964 0.42615,-0.03676 0.14314,-0.347266 -0.18605,-0.204124 -0.60664,-0.53089 -0.93483,-0.72657 -0.32818,-0.195691 -0.54445,-0.403816 -0.48007,-0.462504 0.0233,-0.02128 0.0689,-0.02892 0.12919,-0.02584 z m -35.710998,0.429431 c 0.123131,-0.0038 0.230861,0.0013 0.31471,0.01757 0.53273,0.100845 0.626544,0.316765 0.74259,1.71049 0.16352,1.96371 -0.09112,3.197604 -0.702799,3.409094 -0.255047,0.0882 -1.306556,0.345966 -2.336809,0.573091 -1.030242,0.227117 -1.955624,0.412478 -2.056205,0.410828 -0.418234,-0.0047 -0.459893,-0.651252 -0.186552,-2.887679 0.300497,-2.458584 0.309326,-2.471811 1.684135,-2.615861 0.146396,-0.01537 0.711398,-0.182457 1.255737,-0.371553 0.408251,-0.141852 0.915741,-0.235006 1.285193,-0.24598 z m 16.557646,0.01499 0.926558,0.0015 c 0.631639,0.0011 1.285988,0.265018 2.054654,0.827857 1.37983,1.010389 1.7763,2.147798 1.64486,4.72891 -0.0805,1.586572 -0.22917,2.070074 -1.03973,3.395658 -0.63555,1.039343 -1.13256,1.564422 -1.518251,1.60352 -0.314931,0.0319 -0.577943,0.168799 -0.584977,0.303857 -0.0082,0.134857 -0.576038,0.209585 -1.265039,0.165882 -1.432207,-0.09087 -3.723543,-1.100858 -3.698999,-1.630908 0.01658,-0.358005 0.634079,-0.229056 1.205611,0.252181 0.153573,0.129302 0.876303,0.329763 1.606103,0.44545 1.692708,0.268254 3.799242,-0.492372 3.843692,-1.387512 0.0153,-0.311016 0.22091,-0.897997 0.45734,-1.304313 0.55489,-0.95439 0.70377,-4.058844 0.22789,-4.751648 -0.3039,-0.442202 -0.3395,-0.262079 -0.28939,1.453141 0.0481,1.644187 -0.0374,2.122641 -0.53226,2.980697 -0.792712,1.374253 -1.678683,2.000335 -2.796216,1.976624 -0.510579,-0.01081 -1.081745,0.06582 -1.269173,0.170015 -0.944642,0.525052 -2.807431,-1.256771 -2.987415,-2.857707 -0.2311,-2.055667 -0.300732,-2.285788 -0.575159,-1.890324 -0.141749,0.204366 -0.212512,0.553005 -0.156579,0.774113 0.05594,0.221109 -0.02115,0.574934 -0.171049,0.786516 -0.191556,0.270256 -0.25111,-0.09117 -0.202055,-1.21543 0.05157,-1.178499 0.258031,-1.936787 0.783415,-2.877344 0.839062,-1.50207 1.330303,-1.825368 2.904732,-1.911511 0.642149,-0.03468 0.897363,-0.02444 0.567407,0.02274 -0.329951,0.04708 -0.605048,0.197075 -0.611332,0.332796 -0.0063,0.1357 -0.189686,0.238506 -0.407727,0.22841 -0.218046,-0.01035 -0.402029,0.100094 -0.408761,0.245463 -0.0067,0.14536 -0.177559,0.256891 -0.379822,0.24753 -0.512915,-0.02371 -1.450839,2.069947 -1.050065,2.344043 0.164318,0.112381 0.3347,0.749857 0.378789,1.416968 0.09585,1.450921 0.744422,2.200575 2.146639,2.480468 1.193648,0.238283 1.082815,-0.138773 -0.183452,-0.622701 -1.257249,-0.480463 -1.653839,-1.440333 -1.205094,-2.917651 0.248661,-0.818606 0.564536,-1.238383 1.154968,-1.535307 0.447047,-0.224811 0.892822,-0.507262 0.989604,-0.627869 0.09678,-0.120606 0.741862,0.09568 1.434021,0.481108 1.24678,0.694147 1.258402,0.714076 1.274341,2.107882 0.01316,1.159001 -0.09284,1.51254 -0.602548,2.007112 -0.340273,0.330171 -0.776227,0.592859 -0.968933,0.583944 -0.192714,-0.0093 -0.356037,0.102667 -0.362768,0.248047 -0.02433,0.526401 1.233357,0.306073 1.889807,-0.331246 1.166375,-1.132371 0.880585,-3.807433 -0.54467,-5.102014 -0.822146,-0.746733 -3.315525,-0.346069 -4.089156,0.657324 -0.10781,0.13976 -0.274121,0.168281 -0.370003,0.06304 -0.09587,-0.105192 0.22752,-0.533857 0.719336,-0.952396 0.710765,-0.604884 1.129413,-0.750659 2.040185,-0.708484 0.630194,0.0292 1.214006,0.175523 1.297079,0.325045 0.158528,0.28521 1.171824,0.429416 1.183907,0.168465 0.01812,-0.391641 -0.76196,-0.914671 -1.567863,-1.051099 z m 31.788762,2.18798 c 0.41522,0.04506 0.90019,0.20867 1.49396,0.486792 1.55121,0.72652 2.46313,1.808977 1.4857,1.763717 -0.48404,-0.02237 -0.98689,1.865253 -0.5426,2.036568 0.54735,0.211048 0.27962,0.744627 -0.6134,1.223181 l -0.88264,0.473356 0.786,0.180351 c 0.54029,0.124517 0.67579,0.244273 0.43305,0.381889 -0.27202,0.154259 -0.2861,0.289324 -0.061,0.587561 0.23069,0.305725 0.20405,0.383271 -0.12712,0.367936 -0.23073,-0.01067 -0.53749,-0.266849 -0.68161,-0.568958 -0.14412,-0.302078 -0.38029,-0.483567 -0.52504,-0.403076 -0.14476,0.08047 -0.66539,-0.128857 -1.15703,-0.465088 -0.6725,-0.459926 -0.88592,-0.792441 -0.86041,-1.34307 0.0639,-1.37934 0.60369,-2.263047 1.58698,-2.597258 0.93594,-0.318115 1.25995,-0.732011 0.59634,-0.762744 -0.58928,-0.02733 -2.04728,0.709129 -2.31665,1.170471 -0.50954,0.872673 -0.72846,2.19089 -0.40101,2.41484 0.17442,0.119266 0.22351,0.354046 0.10904,0.521415 -0.14589,0.213309 -0.31549,0.135306 -0.56689,-0.261482 -0.56688,-0.89474 -0.23974,-3.41125 0.57567,-4.429187 0.47946,-0.598541 0.97662,-0.852232 1.66864,-0.777214 z m -32.32723,0.63562 v 5.17e-4 c -0.145205,0.02417 -0.398885,0.140165 -0.742074,0.357601 -0.681579,0.431829 -0.928272,2.110265 -0.395841,2.694409 0.166359,0.182504 0.655518,0.347972 1.086755,0.367936 0.839284,0.03883 0.805975,-0.128691 -0.128674,-0.648022 -0.808402,-0.449203 -0.843785,-1.425826 -0.07855,-2.168343 0.353436,-0.34295 0.461282,-0.549577 0.366386,-0.597897 -0.02372,-0.01204 -0.05959,-0.01409 -0.108003,-0.0062 z m 45.16313,0.03411 c -0.069,-0.0041 -0.14269,0.08921 -0.22375,0.274401 -0.14831,0.338745 0.0176,3.52056 0.25786,4.942851 0.11808,0.698697 0.47942,0.936405 3.8499,2.53783 1.30689,0.620923 1.86733,0.777121 2.00452,0.557588 0.22317,-0.357146 -0.0594,-4.305669 -0.36432,-5.092712 -0.1357,-0.350136 -0.22635,0.319491 -0.25838,1.908411 -0.0271,1.346317 -0.12367,2.444476 -0.21497,2.440161 -0.20263,-0.0093 -1.80234,-0.737878 -3.22978,-1.470711 l -1.05523,-0.542086 -0.22996,-2.691309 C 142.10269,79.34052 141.941,78.44443 141.73398,78.430872 Z m 0.85008,0.03721 c -0.19648,0.01079 -0.2351,0.154236 -0.0827,0.428397 0.0887,0.159471 0.3848,0.301002 0.65836,0.313676 0.27359,0.01263 0.56551,0.145035 0.64854,0.294556 0.0831,0.149542 0.59046,0.282204 1.12758,0.294556 0.88132,0.0203 0.91182,-7.13e-4 0.31005,-0.214458 -0.36674,-0.130092 -1.10003,-0.467147 -1.62987,-0.749308 -0.48083,-0.256072 -0.8355,-0.378257 -1.03198,-0.367419 z M 97.256596,79.23134 c -0.121101,0.02417 -0.270518,0.132852 -0.447518,0.327111 -0.254319,0.279038 -0.25611,0.492512 -0.0093,0.936894 0.231797,0.417328 0.538636,0.564499 1.116211,0.535885 0.685384,-0.03391 0.801269,-0.146885 0.831991,-0.810287 0.01967,-0.423969 -0.120559,-0.830328 -0.311092,-0.903821 -0.22934,-0.08836 -0.325523,0.05207 -0.284221,0.415996 0.03422,0.302414 -0.05776,0.57924 -0.205155,0.615466 -0.147347,0.03627 -0.293737,-0.203554 -0.325045,-0.532784 -0.03275,-0.343922 -0.118106,-0.53729 -0.254248,-0.580326 -0.03403,-0.01076 -0.07125,-0.01219 -0.111621,-0.0041 z m 21.194054,0.02635 -0.0393,1.653646 c -0.0216,0.909466 -0.0919,1.650934 -0.15607,1.647962 -0.27979,-0.01294 -0.2954,-0.505471 -0.0584,-1.856734 z m 10.01386,2.71508 c -0.3646,-0.01688 -0.36342,0.677495 0.002,1.328085 0.16696,0.297104 0.53331,0.550773 0.81442,0.563789 0.48699,0.02257 0.48532,-0.0065 -0.0351,-0.614949 -0.30049,-0.351077 -0.53973,-0.779026 -0.53175,-0.951363 0.008,-0.172337 -0.10425,-0.318831 -0.2496,-0.325562 z m -19.66908,0.412895 c 0.1263,0.0062 0.53756,0.650771 0.91364,1.432987 0.37608,0.782218 0.75021,1.484528 0.83095,1.561145 0.0808,0.07663 0.36041,0.417682 0.62219,0.757577 l 0.47645,0.61805 -1.37097,-0.06356 c -0.8659,-0.04007 -1.40292,-0.186737 -1.45779,-0.398425 -0.21053,-0.811814 -0.2221,-3.917381 -0.0145,-3.907772 z m 8.95966,0.433048 c 0.0211,0.004 0.0238,0.135617 0.0264,0.397392 0.003,0.300654 -0.34314,0.85093 -0.76894,1.222665 -0.4258,0.371714 -0.88639,0.668266 -1.02371,0.659908 -0.13732,-0.0082 0.13862,-0.327159 0.61288,-0.707967 0.47425,-0.380808 0.93214,-0.923751 1.01802,-1.206645 0.0748,-0.246302 0.11434,-0.369566 0.1354,-0.365353 z m -1.7694,0.989604 c 0.20316,0.01242 0.14053,0.130759 -0.0718,0.363802 -0.22402,0.245835 -0.78137,0.353074 -1.56941,0.301274 l -1.22215,-0.0801 1.33842,-0.306958 c 0.85247,-0.195187 1.32181,-0.290031 1.52498,-0.278019 z m -4.42196,1.172022 c 0.13161,8.87e-4 0.3498,0.09938 0.63149,0.316776 0.73193,0.564892 1.01819,0.587798 0.84543,0.06666 -0.10827,-0.326532 0.12637,-0.391203 1.23144,-0.340031 0.84294,0.03904 1.29851,0.161368 1.19011,0.319877 -0.0965,0.141207 -0.43649,0.253887 -0.75551,0.250631 -0.5,-0.0048 -0.47852,0.03691 0.1571,0.302307 0.52321,0.21849 0.82658,0.225902 1.0449,0.02687 0.16921,-0.154221 0.53651,-0.269774 0.81597,-0.256831 0.74162,0.03438 0.0795,0.688922 -0.85886,0.849043 -0.40051,0.06837 -0.98592,0.185522 -1.3007,0.259933 -0.31477,0.0744 -0.64601,0.0016 -0.73639,-0.160714 -0.0904,-0.162554 -0.49625,-0.310943 -0.90124,-0.329695 -0.40498,-0.01874 -0.94126,-0.28273 -1.19165,-0.586528 -0.37015,-0.449156 -0.39144,-0.719782 -0.17209,-0.718302 z m 29.71499,1.349788 c -0.58586,0.08497 1.3249,1.328984 2.09909,1.366842 0.31872,0.0155 0.92622,0.265933 1.34979,0.556555 0.42358,0.290612 0.86789,0.478714 0.98702,0.418062 0.42056,-0.214293 -0.36896,-0.873369 -1.3131,-1.096057 -0.5259,-0.124064 -1.34653,-0.469122 -1.82366,-0.766878 -0.47711,-0.297717 -1.06194,-0.512888 -1.29914,-0.478524 z m -14.39913,0.361735 c -0.12939,-0.01401 -0.16137,0.09671 -0.0832,0.33228 0.12502,0.377108 -0.9131,0.656227 -2.21743,0.595829 l -0.64234,-0.02997 0.17828,0.331246 4.31085,0.186552 c 0.47961,-0.05734 0.82165,-0.160604 0.82838,-0.305924 0.006,-0.12634 -0.26435,-0.24284 -0.59997,-0.258382 -0.33563,-0.01553 -0.83255,-0.213802 -1.10484,-0.440284 -0.31297,-0.260336 -0.54032,-0.397699 -0.66973,-0.411344 z" /></g></svg>
